<svg xmlns="http://www.w3.org/2000/svg" viewBox="0 0 640 360" role="img" aria-label="CFO dashboard placeholder">
  <rect width="640" height="360" fill="#0c1520"/>
  <rect x="24" y="24" width="592" height="40" rx="4" fill="#132033"/>
  <text x="40" y="50" fill="#6a9bb0" font-family="Segoe UI, Arial, sans-serif" font-size="16" font-weight="700">CFO � Economics &amp; AR/AP</text>
  <text x="480" y="50" fill="#5a6b7a" font-family="Segoe UI, Arial, sans-serif" font-size="12">SAMPLE � NO CLIENT DATA</text>
  <rect x="24" y="84" width="180" height="88" rx="4" fill="#132033"/>
  <rect x="220" y="84" width="180" height="88" rx="4" fill="#132033"/>
  <rect x="416" y="84" width="200" height="88" rx="4" fill="#132033"/>
  <text x="40" y="112" fill="#9bb8c6" font-size="12" font-family="Segoe UI, Arial, sans-serif">Gross / Net / Agency</text>
  <text x="40" y="148" fill="#f7fafc" font-size="28" font-family="Segoe UI, Arial, sans-serif" font-weight="700">�� � ��</text>
  <text x="236" y="112" fill="#9bb8c6" font-size="12" font-family="Segoe UI, Arial, sans-serif">Open AR</text>
  <text x="236" y="148" fill="#f7fafc" font-size="28" font-family="Segoe UI, Arial, sans-serif" font-weight="700">���</text>
  <text x="432" y="112" fill="#9bb8c6" font-size="12" font-family="Segoe UI, Arial, sans-serif">FX by payment date</text>
  <text x="432" y="148" fill="#f7fafc" font-size="28" font-family="Segoe UI, Arial, sans-serif" font-weight="700">EUR � USD � BYN</text>
  <rect x="24" y="192" width="380" height="144" rx="4" fill="#132033"/>
  <rect x="420" y="192" width="196" height="144" rx="4" fill="#132033"/>
  <polyline points="48,300 100,260 150,275 210,230 270,245 330,210 380,220" fill="none" stroke="#6a9bb0" stroke-width="2.5"/>
  <rect x="440" y="230" width="24" height="80" fill="#4e7f96"/>
  <rect x="480" y="250" width="24" height="60" fill="#6a9bb0"/>
  <rect x="520" y="220" width="24" height="90" fill="#9bb8c6"/>
  <rect x="560" y="265" width="24" height="45" fill="#4e7f96"/>
</svg>
